<?xml version="1.0" encoding="UTF-8"?>
<svg version="1.1" xmlns="http://www.w3.org/2000/svg" width="411" height="328">
<path d="M0 0 C135.63 0 271.26 0 411 0 C411 108.24 411 216.48 411 328 C275.37 328 139.74 328 0 328 C0 219.76 0 111.52 0 0 Z " fill="#3D788B" transform="translate(0,0)"/>
<path d="M0 0 C89.43 0 178.86 0 271 0 C271 20.46 271 40.92 271 62 C181.57 62 92.14 62 0 62 C0 41.54 0 21.08 0 0 Z " fill="#007BD8" transform="translate(0,44)"/>
<path d="M0 0 C25.41 0 50.82 0 77 0 C77 26.07 77 52.14 77 79 C51.59 79 26.18 79 0 79 C0 52.93 0 26.86 0 0 Z " fill="#FFFFFF" transform="translate(164,165)"/>
<path d="M0 0 C0.99 0.33 1.98 0.66 3 1 C2.67 1.66 2.34 2.32 2 3 C1.34 3 0.68 3 0 3 C0 3.99 0 4.98 0 6 C0.66 6 1.32 6 2 6 C2.33 7.65 2.66 9.3 3 11 C4.32 11.33 5.64 11.66 7 12 C7.12375 12.639375 7.2475 13.27875 7.375 13.9375 C7.58125 14.618125 7.7875 15.29875 8 16 C8.66 16.33 9.32 16.66 10 17 C10.625 19.5625 10.625 19.5625 11 22 C11.99 22.33 12.98 22.66 14 23 C14 23.99 14 24.98 14 26 C14.66 26 15.32 26 16 26 C16 27.32 16 28.64 16 30 C15.01 30.33 14.02 30.66 13 31 C11.5 29.6875 11.5 29.6875 10 28 C10 27.01 10 26.02 10 25 C9.34 25 8.68 25 8 25 C7.67 23.35 7.34 21.7 7 20 C5.68 19.67 4.36 19.34 3 19 C2.67 17.35 2.34 15.7 2 14 C1.34 14 0.68 14 0 14 C-0.33 12.35 -0.66 10.7 -1 9 C-1.99 8.67 -2.98 8.34 -4 8 C-4 7.34 -4 6.68 -4 6 C-4.66 5.67 -5.32 5.34 -6 5 C-5.34 5 -4.68 5 -4 5 C-4 4.34 -4 3.68 -4 3 C-3.01 3 -2.02 3 -1 3 C-0.67 2.01 -0.34 1.02 0 0 Z " fill="#BAD033" transform="translate(316,86)"/>
</svg>
